<svg xmlns="http://www.w3.org/2000/svg" viewBox="0 0 18 18" shape-rendering="crispEdges">
  <rect width="18" height="18" rx="4" fill="#2b3350"/>
  <rect x="5" y="1" width="1" height="1" fill="#6a4525"/><rect x="6" y="1" width="1" height="1" fill="#6a4525"/><rect x="7" y="1" width="1" height="1" fill="#6a4525"/><rect x="8" y="1" width="1" height="1" fill="#6a4525"/><rect x="9" y="1" width="1" height="1" fill="#6a4525"/><rect x="10" y="1" width="1" height="1" fill="#6a4525"/><rect x="11" y="1" width="1" height="1" fill="#6a4525"/><rect x="12" y="1" width="1" height="1" fill="#6a4525"/><rect x="3" y="2" width="1" height="1" fill="#6a4525"/><rect x="4" y="2" width="1" height="1" fill="#6a4525"/><rect x="5" y="2" width="1" height="1" fill="#6a4525"/><rect x="6" y="2" width="1" height="1" fill="#6a4525"/><rect x="7" y="2" width="1" height="1" fill="#6a4525"/><rect x="8" y="2" width="1" height="1" fill="#6a4525"/><rect x="9" y="2" width="1" height="1" fill="#6a4525"/><rect x="10" y="2" width="1" height="1" fill="#6a4525"/><rect x="11" y="2" width="1" height="1" fill="#6a4525"/><rect x="12" y="2" width="1" height="1" fill="#6a4525"/><rect x="13" y="2" width="1" height="1" fill="#6a4525"/><rect x="14" y="2" width="1" height="1" fill="#6a4525"/><rect x="2" y="3" width="1" height="1" fill="#6a4525"/><rect x="3" y="3" width="1" height="1" fill="#6a4525"/><rect x="4" y="3" width="1" height="1" fill="#6a4525"/><rect x="5" y="3" width="1" height="1" fill="#6a4525"/><rect x="6" y="3" width="1" height="1" fill="#6a4525"/><rect x="7" y="3" width="1" height="1" fill="#6a4525"/><rect x="8" y="3" width="1" height="1" fill="#6a4525"/><rect x="9" y="3" width="1" height="1" fill="#6a4525"/><rect x="10" y="3" width="1" height="1" fill="#6a4525"/><rect x="11" y="3" width="1" height="1" fill="#6a4525"/><rect x="12" y="3" width="1" height="1" fill="#6a4525"/><rect x="13" y="3" width="1" height="1" fill="#6a4525"/><rect x="14" y="3" width="1" height="1" fill="#6a4525"/><rect x="15" y="3" width="1" height="1" fill="#6a4525"/><rect x="2" y="4" width="1" height="1" fill="#6a4525"/><rect x="3" y="4" width="1" height="1" fill="#6a4525"/><rect x="4" y="4" width="1" height="1" fill="#6a4525"/><rect x="5" y="4" width="1" height="1" fill="#f1c49c"/><rect x="6" y="4" width="1" height="1" fill="#f1c49c"/><rect x="7" y="4" width="1" height="1" fill="#f1c49c"/><rect x="8" y="4" width="1" height="1" fill="#f1c49c"/><rect x="9" y="4" width="1" height="1" fill="#f1c49c"/><rect x="10" y="4" width="1" height="1" fill="#f1c49c"/><rect x="11" y="4" width="1" height="1" fill="#f1c49c"/><rect x="12" y="4" width="1" height="1" fill="#f1c49c"/><rect x="13" y="4" width="1" height="1" fill="#6a4525"/><rect x="14" y="4" width="1" height="1" fill="#6a4525"/><rect x="15" y="4" width="1" height="1" fill="#6a4525"/><rect x="2" y="5" width="1" height="1" fill="#6a4525"/><rect x="3" y="5" width="1" height="1" fill="#6a4525"/><rect x="4" y="5" width="1" height="1" fill="#f1c49c"/><rect x="5" y="5" width="1" height="1" fill="#f1c49c"/><rect x="6" y="5" width="1" height="1" fill="#f1c49c"/><rect x="7" y="5" width="1" height="1" fill="#f1c49c"/><rect x="8" y="5" width="1" height="1" fill="#f1c49c"/><rect x="9" y="5" width="1" height="1" fill="#f1c49c"/><rect x="10" y="5" width="1" height="1" fill="#f1c49c"/><rect x="11" y="5" width="1" height="1" fill="#f1c49c"/><rect x="12" y="5" width="1" height="1" fill="#f1c49c"/><rect x="13" y="5" width="1" height="1" fill="#f1c49c"/><rect x="14" y="5" width="1" height="1" fill="#6a4525"/><rect x="15" y="5" width="1" height="1" fill="#6a4525"/><rect x="2" y="6" width="1" height="1" fill="#6a4525"/><rect x="3" y="6" width="1" height="1" fill="#f1c49c"/><rect x="4" y="6" width="1" height="1" fill="#f1c49c"/><rect x="5" y="6" width="1" height="1" fill="#f1c49c"/><rect x="6" y="6" width="1" height="1" fill="#f1c49c"/><rect x="7" y="6" width="1" height="1" fill="#f1c49c"/><rect x="8" y="6" width="1" height="1" fill="#f1c49c"/><rect x="9" y="6" width="1" height="1" fill="#f1c49c"/><rect x="10" y="6" width="1" height="1" fill="#f1c49c"/><rect x="11" y="6" width="1" height="1" fill="#f1c49c"/><rect x="12" y="6" width="1" height="1" fill="#f1c49c"/><rect x="13" y="6" width="1" height="1" fill="#f1c49c"/><rect x="14" y="6" width="1" height="1" fill="#f1c49c"/><rect x="15" y="6" width="1" height="1" fill="#6a4525"/><rect x="2" y="7" width="1" height="1" fill="#6a4525"/><rect x="3" y="7" width="1" height="1" fill="#f1c49c"/><rect x="4" y="7" width="1" height="1" fill="#f1c49c"/><rect x="5" y="7" width="1" height="1" fill="#4e3319"/><rect x="6" y="7" width="1" height="1" fill="#4e3319"/><rect x="7" y="7" width="1" height="1" fill="#f1c49c"/><rect x="8" y="7" width="1" height="1" fill="#f1c49c"/><rect x="9" y="7" width="1" height="1" fill="#f1c49c"/><rect x="10" y="7" width="1" height="1" fill="#f1c49c"/><rect x="11" y="7" width="1" height="1" fill="#4e3319"/><rect x="12" y="7" width="1" height="1" fill="#4e3319"/><rect x="13" y="7" width="1" height="1" fill="#f1c49c"/><rect x="14" y="7" width="1" height="1" fill="#f1c49c"/><rect x="15" y="7" width="1" height="1" fill="#6a4525"/><rect x="2" y="8" width="1" height="1" fill="#6a4525"/><rect x="3" y="8" width="1" height="1" fill="#f1c49c"/><rect x="4" y="8" width="1" height="1" fill="#f1c49c"/><rect x="5" y="8" width="1" height="1" fill="#f1c49c"/><rect x="6" y="8" width="1" height="1" fill="#f1c49c"/><rect x="7" y="8" width="1" height="1" fill="#f1c49c"/><rect x="8" y="8" width="1" height="1" fill="#f1c49c"/><rect x="9" y="8" width="1" height="1" fill="#f1c49c"/><rect x="10" y="8" width="1" height="1" fill="#f1c49c"/><rect x="11" y="8" width="1" height="1" fill="#f1c49c"/><rect x="12" y="8" width="1" height="1" fill="#f1c49c"/><rect x="13" y="8" width="1" height="1" fill="#f1c49c"/><rect x="14" y="8" width="1" height="1" fill="#f1c49c"/><rect x="15" y="8" width="1" height="1" fill="#6a4525"/><rect x="2" y="9" width="1" height="1" fill="#f1c49c"/><rect x="3" y="9" width="1" height="1" fill="#f1c49c"/><rect x="4" y="9" width="1" height="1" fill="#f1c49c"/><rect x="5" y="9" width="1" height="1" fill="#f1c49c"/><rect x="6" y="9" width="1" height="1" fill="#f1c49c"/><rect x="7" y="9" width="1" height="1" fill="#f1c49c"/><rect x="8" y="9" width="1" height="1" fill="#f1c49c"/><rect x="9" y="9" width="1" height="1" fill="#f1c49c"/><rect x="10" y="9" width="1" height="1" fill="#f1c49c"/><rect x="11" y="9" width="1" height="1" fill="#f1c49c"/><rect x="12" y="9" width="1" height="1" fill="#f1c49c"/><rect x="13" y="9" width="1" height="1" fill="#f1c49c"/><rect x="14" y="9" width="1" height="1" fill="#f1c49c"/><rect x="15" y="9" width="1" height="1" fill="#f1c49c"/><rect x="2" y="10" width="1" height="1" fill="#f1c49c"/><rect x="3" y="10" width="1" height="1" fill="#f1c49c"/><rect x="4" y="10" width="1" height="1" fill="#f1c49c"/><rect x="5" y="10" width="1" height="1" fill="#f1c49c"/><rect x="6" y="10" width="1" height="1" fill="#f1c49c"/><rect x="7" y="10" width="1" height="1" fill="#f1c49c"/><rect x="8" y="10" width="1" height="1" fill="#f1c49c"/><rect x="9" y="10" width="1" height="1" fill="#f1c49c"/><rect x="10" y="10" width="1" height="1" fill="#f1c49c"/><rect x="11" y="10" width="1" height="1" fill="#f1c49c"/><rect x="12" y="10" width="1" height="1" fill="#f1c49c"/><rect x="13" y="10" width="1" height="1" fill="#f1c49c"/><rect x="14" y="10" width="1" height="1" fill="#f1c49c"/><rect x="15" y="10" width="1" height="1" fill="#f1c49c"/><rect x="2" y="11" width="1" height="1" fill="#f1c49c"/><rect x="3" y="11" width="1" height="1" fill="#f1c49c"/><rect x="4" y="11" width="1" height="1" fill="#f1c49c"/><rect x="5" y="11" width="1" height="1" fill="#f1c49c"/><rect x="6" y="11" width="1" height="1" fill="#f1c49c"/><rect x="7" y="11" width="1" height="1" fill="#f1c49c"/><rect x="8" y="11" width="1" height="1" fill="#f1c49c"/><rect x="9" y="11" width="1" height="1" fill="#e0a878"/><rect x="10" y="11" width="1" height="1" fill="#e0a878"/><rect x="11" y="11" width="1" height="1" fill="#f1c49c"/><rect x="12" y="11" width="1" height="1" fill="#f1c49c"/><rect x="13" y="11" width="1" height="1" fill="#f1c49c"/><rect x="14" y="11" width="1" height="1" fill="#f1c49c"/><rect x="15" y="11" width="1" height="1" fill="#f1c49c"/><rect x="2" y="12" width="1" height="1" fill="#f1c49c"/><rect x="3" y="12" width="1" height="1" fill="#f1c49c"/><rect x="4" y="12" width="1" height="1" fill="#f1c49c"/><rect x="5" y="12" width="1" height="1" fill="#f1c49c"/><rect x="6" y="12" width="1" height="1" fill="#4e3319"/><rect x="7" y="12" width="1" height="1" fill="#4e3319"/><rect x="8" y="12" width="1" height="1" fill="#4e3319"/><rect x="9" y="12" width="1" height="1" fill="#4e3319"/><rect x="10" y="12" width="1" height="1" fill="#4e3319"/><rect x="11" y="12" width="1" height="1" fill="#4e3319"/><rect x="12" y="12" width="1" height="1" fill="#4e3319"/><rect x="13" y="12" width="1" height="1" fill="#4e3319"/><rect x="14" y="12" width="1" height="1" fill="#f1c49c"/><rect x="15" y="12" width="1" height="1" fill="#f1c49c"/><rect x="2" y="13" width="1" height="1" fill="#f1c49c"/><rect x="3" y="13" width="1" height="1" fill="#f1c49c"/><rect x="4" y="13" width="1" height="1" fill="#f1c49c"/><rect x="5" y="13" width="1" height="1" fill="#4e3319"/><rect x="6" y="13" width="1" height="1" fill="#4e3319"/><rect x="7" y="13" width="1" height="1" fill="#f1c49c"/><rect x="8" y="13" width="1" height="1" fill="#f1c49c"/><rect x="9" y="13" width="1" height="1" fill="#f1c49c"/><rect x="10" y="13" width="1" height="1" fill="#f1c49c"/><rect x="11" y="13" width="1" height="1" fill="#f1c49c"/><rect x="12" y="13" width="1" height="1" fill="#f1c49c"/><rect x="13" y="13" width="1" height="1" fill="#4e3319"/><rect x="14" y="13" width="1" height="1" fill="#4e3319"/><rect x="15" y="13" width="1" height="1" fill="#f1c49c"/><rect x="2" y="14" width="1" height="1" fill="#f1c49c"/><rect x="3" y="14" width="1" height="1" fill="#f1c49c"/><rect x="4" y="14" width="1" height="1" fill="#f1c49c"/><rect x="5" y="14" width="1" height="1" fill="#f1c49c"/><rect x="6" y="14" width="1" height="1" fill="#f1c49c"/><rect x="7" y="14" width="1" height="1" fill="#f1c49c"/><rect x="8" y="14" width="1" height="1" fill="#f1c49c"/><rect x="9" y="14" width="1" height="1" fill="#f1c49c"/><rect x="10" y="14" width="1" height="1" fill="#f1c49c"/><rect x="11" y="14" width="1" height="1" fill="#f1c49c"/><rect x="12" y="14" width="1" height="1" fill="#f1c49c"/><rect x="13" y="14" width="1" height="1" fill="#f1c49c"/><rect x="14" y="14" width="1" height="1" fill="#f1c49c"/><rect x="15" y="14" width="1" height="1" fill="#f1c49c"/><rect x="2" y="15" width="1" height="1" fill="#f1c49c"/><rect x="3" y="15" width="1" height="1" fill="#f1c49c"/><rect x="4" y="15" width="1" height="1" fill="#f1c49c"/><rect x="5" y="15" width="1" height="1" fill="#f1c49c"/><rect x="6" y="15" width="1" height="1" fill="#f1c49c"/><rect x="7" y="15" width="1" height="1" fill="#f1c49c"/><rect x="8" y="15" width="1" height="1" fill="#f1c49c"/><rect x="9" y="15" width="1" height="1" fill="#f1c49c"/><rect x="10" y="15" width="1" height="1" fill="#f1c49c"/><rect x="11" y="15" width="1" height="1" fill="#f1c49c"/><rect x="12" y="15" width="1" height="1" fill="#f1c49c"/><rect x="13" y="15" width="1" height="1" fill="#f1c49c"/><rect x="14" y="15" width="1" height="1" fill="#f1c49c"/><rect x="15" y="15" width="1" height="1" fill="#f1c49c"/><rect x="3" y="16" width="1" height="1" fill="#f1c49c"/><rect x="4" y="16" width="1" height="1" fill="#f1c49c"/><rect x="5" y="16" width="1" height="1" fill="#f1c49c"/><rect x="6" y="16" width="1" height="1" fill="#f1c49c"/><rect x="7" y="16" width="1" height="1" fill="#f1c49c"/><rect x="8" y="16" width="1" height="1" fill="#f1c49c"/><rect x="9" y="16" width="1" height="1" fill="#f1c49c"/><rect x="10" y="16" width="1" height="1" fill="#f1c49c"/><rect x="11" y="16" width="1" height="1" fill="#f1c49c"/><rect x="12" y="16" width="1" height="1" fill="#f1c49c"/><rect x="13" y="16" width="1" height="1" fill="#f1c49c"/><rect x="14" y="16" width="1" height="1" fill="#f1c49c"/><rect x="4" y="17" width="1" height="1" fill="#3f7fd6"/><rect x="5" y="17" width="1" height="1" fill="#3f7fd6"/><rect x="6" y="17" width="1" height="1" fill="#3f7fd6"/><rect x="7" y="17" width="1" height="1" fill="#3f7fd6"/><rect x="8" y="17" width="1" height="1" fill="#3f7fd6"/><rect x="9" y="17" width="1" height="1" fill="#3f7fd6"/><rect x="10" y="17" width="1" height="1" fill="#3f7fd6"/><rect x="11" y="17" width="1" height="1" fill="#3f7fd6"/><rect x="12" y="17" width="1" height="1" fill="#3f7fd6"/><rect x="13" y="17" width="1" height="1" fill="#3f7fd6"/>
  
  <g>
    <rect x="3.7" y="11.2" width="1.7" height="1.3" rx="0.65" fill="#e79184" opacity="0.55"/>
    <rect x="12.6" y="11.2" width="1.7" height="1.3" rx="0.65" fill="#e79184" opacity="0.55"/>
    <path d="M6.6 14.3 Q9 15.7 11.4 14.3" stroke="#7a3b28" stroke-width="0.95" fill="none" stroke-linecap="round"/>
  </g>
  
  <g shape-rendering="crispEdges">
    <rect x="3.6" y="7.4" width="4.2" height="3.2" rx="0.7" fill="#cfe9f5" stroke="#20232a" stroke-width="0.7"/>
    <rect x="10.2" y="7.4" width="4.2" height="3.2" rx="0.7" fill="#cfe9f5" stroke="#20232a" stroke-width="0.7"/>
    <rect x="7.8" y="8.4" width="2.4" height="0.8" fill="#20232a"/>
    <rect x="2.2" y="8.2" width="1.5" height="0.7" fill="#20232a"/>
    <rect x="14.3" y="8.2" width="1.5" height="0.7" fill="#20232a"/>
    <rect x="5.1" y="8.4" width="1.3" height="1.3" rx="0.4" fill="#2a2a2a"/>
    <rect x="11.6" y="8.4" width="1.3" height="1.3" rx="0.4" fill="#2a2a2a"/>
  </g>
</svg>